# Blender 3.3.1
# www.blender.org
mtllib studioobamasign.mtl
o New_World__40_-63_-45_to_40_319_-45
v 0.229167 -0.000000 0.229167
v 0.229167 -0.000000 0.270833
v 0.229167 0.291667 0.229167
v 0.229167 0.291667 0.270833
v 0.270833 -0.000000 0.229167
v 0.270833 -0.000000 0.270833
v 0.270833 0.291667 0.229167
v 0.270833 0.291667 0.270833
v 0.000000 0.291667 0.229167
v 0.000000 0.291667 0.270833
v 0.000000 0.541667 0.229167
v 0.000000 0.541667 0.270833
v 0.500000 0.291667 0.229167
v 0.500000 0.291667 0.270833
v 0.500000 0.541667 0.229167
v 0.500000 0.541667 0.270833
vn -1.0000 -0.0000 -0.0000
vn -0.0000 -1.0000 -0.0000
vn -0.0000 -0.0000 -1.0000
vn 1.0000 -0.0000 -0.0000
vn -0.0000 -0.0000 1.0000
vn -0.0000 1.0000 -0.0000
vt 0.439433 0.003242
vt 0.516680 0.303312
vt 0.573307 0.003242
vt 0.573307 0.003242
vt 0.516680 0.289967
vt 0.439433 0.003242
vt 0.432678 0.514042
vt 0.566552 0.514042
vt 0.566552 0.514042
vt 0.432678 0.514042
vt 0.530585 0.303312
vt 0.439433 0.003242
vt 0.573307 0.003242
vt 0.530585 0.289967
vt 0.439433 0.003242
vt 0.573307 0.003242
vt 0.432678 0.514042
vt 0.566552 0.514042
vt 0.432678 0.514042
vt 0.566552 0.514042
vt 0.035563 0.761300
vt 0.071289 0.992188
vt 0.321701 0.528766
vt 0.071576 0.761300
vt 0.071289 0.990234
vt 0.019045 0.520418
vt 0.035563 0.977379
vt 0.321701 0.669262
vt 0.134375 0.634137
vt 0.071576 0.977379
vt 0.134375 0.610721
vt 0.016725 1.000191
vt 0.086914 0.992188
vt 0.134375 0.528766
vt 0.094110 0.767981
vt 0.086914 0.990234
vt 0.055582 0.767981
vt 0.964504 0.520307
vt 0.134375 0.669262
vt 0.094110 0.999152
vt 0.321701 0.634137
vt 0.055582 0.999152
vt 0.321701 0.610721
vt 0.964448 0.998070
s 0
usemtl Oak_Sign
f 3/7/1 1/1/1 2/4/1 4/9/1
f 2/5/2 1/2/2 5/11/2 6/14/2
f 7/17/3 5/12/3 1/3/3 3/8/3
f 7/18/4 8/19/4 6/15/4 5/13/4
f 8/20/5 4/10/5 2/6/5 6/16/5
f 11/27/1 9/21/1 10/24/1 12/30/1
f 10/25/2 9/22/2 13/33/2 14/36/2
f 15/39/3 13/34/3 9/23/3 11/28/3
f 15/40/4 16/42/4 14/37/4 13/35/4
f 15/41/6 11/29/6 12/31/6 16/43/6
f 16/44/5 12/32/5 10/26/5 14/38/5
